<?xml version="1.0" encoding="utf-8"?>
<!-- Generator: Adobe Illustrator 16.0.0, SVG Export Plug-In . SVG Version: 6.00 Build 0)  -->
<svg version="1.2" baseProfile="tiny" id="Layer_1" xmlns="http://www.w3.org/2000/svg" xmlns:xlink="http://www.w3.org/1999/xlink"
	 x="0px" y="0px" width="200.066px" height="227.739px" viewBox="0 0 200.066 227.739" xml:space="preserve">
<path d="M199.207,74.657c-0.295,2.882-1.715,5.765-4.344,8.367c-2.307,2.587-5.738,5.188-9.789,7.2
	c-3.164,1.729-6.355,2.882-10.082,3.754c-3.459,0.576-6.623,0.858-9.52,0.858c-3.164,0-5.766,0-8.367-0.577
	c-0.857,0-2.012-0.281-3.432-0.857l-3.756,4.894h-1.447l2.896-6.919c-1.182-0.576-2.629-2.307-4.051-5.766
	c-0.293-0.576-0.885-1.435-1.152-2.587c-0.857,3.163-2.6,5.188-4.346,6.622c-0.857,0.578-1.715,0.873-2.867,1.449
	c0.563,6.047,0.885,10.955,1.447,14.696c0.859,10.096,2.012,19.32,3.166,27.393c0.293,2.883,1.152,5.188,2.01,6.918
	c1.18,1.73,2.602,3.165,4.908,4.036c0.885,0.281,2.01,0.576,3.459,0.576s3.164-0.295,5.201-0.871c0.268,0,0.564,0,0.859-0.281
	c-1.449-1.153-2.602-2.307-3.166-2.883c-2.6-2.602-4.344-4.612-5.201-6.061c-1.717-2.883-2.574-5.472-2.574-8.072
	c0-1.152,0.268-3.163,0.563-6.046c0.563-2.883,1.744-5.189,3.729-7.496c2.307-2.602,5.498-4.036,9.547-4.036
	c6.328,0,12.094,1.435,16.705,4.036c1.744,0.857,3.461,2.012,5.178,4.036v1.153c-1.717-0.576-3.434-0.873-4.613-1.153
	c-4.318-0.872-7.482-1.153-10.084-1.153c-1.152,0-2.574,0-4.021,0.281c-1.744,0-4.346,0.872-8.367,2.602
	c-1.447,0.576-3.164,1.152-5.203,2.307l-0.268,0.281c0,2.602,2.012,6.061,6.625,9.802c4.906,4.33,9.52,6.342,14.4,6.342
	c2.895,0,7.508-1.435,13.836-4.894c2.039-0.872,4.908-2.603,8.662-4.907l-3.754,9.801c-1.422,0.871-2.869,1.729-3.729,2.307
	c-6.65,4.035-10.967,6.342-12.709,7.213c-4.32,2.012-8.637,3.741-12.658,4.895c-4.346,1.447-7.805,2.023-10.674,2.023
	c-0.857,0-1.742,0-2.307,0c-4.908-0.87-8.1-3.753-10.082-9.52c-0.885-1.729-1.449-4.317-1.744-8.072
	c-0.885,4.037-1.742,6.92-2.6,8.945c-2.576,6.046-6.33,8.929-11.236,8.929c-3.18,0-5.766-1.152-7.791-3.741
	c-2.012-2.601-3.164-5.766-4.037-9.801c-4.316,2.883-7.775,4.894-10.377,6.342c-8.073,4.317-14.415,6.918-19.308,7.496
	c0,3.741,0.282,7.494,0.576,11.53c0,3.74,0.858,6.92,1.73,8.931c1.729,3.459,4.611,5.189,8.648,5.189
	c1.729,0.294,3.459,0.576,4.894,0.576c2.307,0,4.333-0.282,6.637-0.858c0.578,0,2.883-0.576,7.199-1.73
	c2.883-0.87,6.342-2.305,10.674-4.33c1.449-0.577,3.164-1.436,5.766-2.307h2.012c-0.27,0.576-0.59,1.153-0.59,1.449
	c-0.564,1.729-0.564,3.163-0.564,4.317c0,1.729,0.295,2.883,0.885,4.035c0.859,1.448,1.984,2.024,4.023,2.601
	c2.574,0.576,6.061-1.729,10.084-6.342c1.447-1.729,3.459-4.331,5.766-7.494h1.742c-0.295,0.576-0.295,1.152-0.295,1.729
	c0,2.307,0.295,4.317,1.154,6.048c0.857,2.307,2.574,3.753,5.201,4.331c1.422,0,2.574,0,3.432-0.578
	c0.859-0.576,1.744-1.152,2.307-2.305l-3.432-5.766l4.611-8.943c0.859,0,1.422,0.871,1.986,2.883
	c0.588,2.024,0.885,4.035,0.885,6.061c0,2.011-0.297,3.741-0.564,5.188c-1.18,3.741-2.307,6.92-4.049,8.931
	c-2.012,2.601-4.611,3.755-7.803,3.459c-2.871-0.281-4.881-1.435-6.598-3.164c-0.885-1.153-1.744-2.882-2.037-4.906
	c-0.27,0.294-0.592,0.576-0.592,0.87c-1.125,1.73-2.307,3.165-3.727,4.317c0,1.73-0.295,2.883-0.295,4.037
	c0,0.871,0.295,1.729,0.295,2.601c1.152,5.471,3.459,9.226,7.213,11.236c2.012,0.872,4.318,1.448,7.188,1.448
	c2.602,0,4.906-0.296,7.51-0.872c2.574-0.576,5.764-2.011,10.082-4.035c4.021-2.011,8.955-4.894,14.428-9.226
	c2.01-1.152,4.316-3.165,7.186-5.471l-1.125-5.188c-0.885-0.576-1.744-1.448-2.307-2.307c-0.885-0.294-1.744-0.294-2.896-0.576
	h-8.635c-1.18,0-2.307-0.296-3.486-1.154c-1.127-0.87-1.717-1.729-2.305-2.881c-0.27-0.872-0.27-2.307-0.27-3.461v-2.882
	c0.27-3.179,1.127-5.766,2.869-8.072c1.744-2.024,3.754-3.177,6.355-3.177c1.447,0,3.164,0.576,5.176,2.024
	c2.012,1.729,3.461,3.459,4.906,5.765c1.449,2.307,2.574,4.895,3.166,7.777c0.857,2.602,1.152,5.188,1.152,7.213
	c0,2.883-0.295,5.472-0.859,8.072c-0.561,2.587-1.152,4.317-2.01,5.47c-1.449,2.307-4.611,5.484-8.957,9.226
	c-3.754,2.883-6.918,5.189-9.787,6.638c-4.908,2.587-8.93,4.317-12.096,5.47c-3.191,0.872-6.061,1.448-8.367,1.448
	c-2.6,0-4.906-0.576-6.918-1.448c-3.164-1.729-5.793-4.611-7.508-8.648c-1.449-4.035-2.307-8.647-2.307-13.837v-2.588
	c-2.305,1.729-4.611,2.307-6.918,2.307c-3.461,0-6.061-1.153-7.777-3.754c-0.857-2.013-1.449-4.317-1.449-6.92
	c0-0.576,0-0.858,0-1.152c0-0.282,0-0.576,0-0.858c-1.434,0.576-2.883,1.435-3.74,1.73c-3.754,1.729-6.061,2.883-7.213,3.163
	c-3.74,1.448-7.199,2.602-10.082,3.179c-3.18,0.576-6.639,1.152-10.38,1.152c-5.483,0-9.225-2.024-11.529-5.483
	c-2.307-3.459-3.461-8.648-3.461-15.567c-0.576,1.152-0.871,2.307-1.447,3.178c-1.154,2.307-2.012,4.317-2.883,5.766l-5.189,8.072
	c1.448,0.858,2.601,1.729,3.178,2.306c2.012,1.729,3.46,2.883,4.036,4.318l-1.153,8.943c-1.729-0.576-3.46-0.872-4.33-1.154
	c-3.741-0.871-6.92-1.152-9.803-1.152c-2.306,0-4.612,0.281-6.342,0.858c-4.317,2.024-8.071,3.753-11.53,5.766
	c-3.459,2.024-6.92,4.331-10.659,7.214c-3.179,2.305-5.766,4.317-7.791,5.47c-2.883,1.448-5.472,2.307-7.778,2.307
	c-3.177,0-5.483-1.154-7.494-3.741c-1.73-2.307-2.601-5.189-2.601-8.648c0-0.576,0-1.152,0-1.448
	c0.294-2.587,2.025-6.624,5.19-12.389c1.152-1.73,2.601-4.331,4.905-7.496l1.73,0.576c-2.024,3.165-3.459,5.472-4.331,7.2
	c-2.883,5.484-4.317,9.226-4.317,11.25c0,2.013,0.576,3.741,1.73,5.189c1.152,1.435,2.587,2.011,4.894,2.011
	c1.73,0,3.178-0.28,4.331-0.858c1.153-0.576,3.741-2.024,7.2-4.907c3.46-2.587,6.637-5.188,10.096-8.071
	c4.037-2.883,8.354-4.894,12.685-6.342c1.154-0.282,3.164-0.576,6.048-1.154c0.872,0,1.729-0.28,3.177-0.576
	c-0.87-0.576-2.023-0.858-4.035-0.858c-1.448,0-2.883,0.282-3.754,0.577c0.576-2.883,2.306-5.765,5.188-8.367
	c2.307-1.435,4.037-2.305,5.483-2.883c3.741-1.729,5.766-3.163,6.342-3.459c3.741-2.883,6.344-7.495,7.497-13.261
	c0.281-1.152,0.576-3.165,0.857-5.766c0-0.282,0-0.858,0-1.435c-2.307,0.282-5.189,0.576-7.776,0.576
	c-6.92,0-12.403-1.448-17.016-3.753c-4.613-2.589-7.776-6.343-9.225-11.532l-2.589-9.225c-1.446,0-3.459,0.576-5.483,2.307
	c-2.011,1.729-4.035,4.035-5.47,6.637c-1.73,2.588-3.459,6.624-5.484,12.684c-3.459,9.225-5.766,13.838-7.496,14.12
	c-1.729,0.295-3.741-1.436-6.046-5.766c-1.448-3.165-3.179-7.2-4.332-12.39c-0.282-1.152-0.576-2.883-0.858-4.908
	c-0.294-2.307-0.294-4.317-0.294-6.047c0-2.306,0-4.33,0-5.765c0.294-1.73,0.294-3.179,0.576-4.613h1.447
	c0.282,2.883,0.282,5.189,0.578,6.918c0.28,4.896,1.152,8.931,2.011,12.108c1.152,2.883,2.024,5.189,2.883,6.624
	c1.448,2.024,2.883,3.177,4.331,3.177c0.28,0,2.011-3.753,5.188-11.249c1.434-4.317,3.164-7.777,4.895-10.954
	c1.729-3.165,3.459-6.048,5.484-8.353c3.163-3.461,6.342-5.189,9.801-4.613c0.858,0,1.435,1.435,2.011,4.317
	c1.154,7.214,2.602,11.825,4.332,13.838c3.164,3.459,6.918,6.061,11.812,6.918c3.179,0.577,8.366,1.153,15.863,1.153l-1.73-17.578
	c-0.576,0-1.153,0-1.729,0s-1.153,0-1.73,0c-6.636,0-11.531-2.601-14.412-7.496c-1.73-3.459-2.883-7.789-2.883-12.979
	c0-1.73,0.576-4.894,1.729-8.931c1.435-4.035,2.588-8.07,3.741-12.107c-2.011-1.447-3.46-4.33-4.612-8.367
	c-0.577-1.152-0.857-3.163-1.436-5.765c-0.295,2.306-0.871,4.036-1.152,5.188c-1.152,4.037-2.602,6.638-4.036,8.648
	c-1.729,1.73-3.459,3.178-5.189,4.036c-1.73,1.153-3.753,1.729-6.06,1.729c-4.317,0-7.496-1.729-10.083-5.189
	c-2.307-3.459-3.756-7.776-3.756-12.684c0-3.165,0.576-6.919,1.154-11.235c0.295-1.449,0.576-3.46,1.447-6.061
	c-0.871,0.87-1.729,2.023-2.602,3.459c-0.857,1.447-1.729,3.178-2.305,4.906c-0.282,0.578-1.154,6.344-2.883,17.003
	c-0.858,6.342-3.165,9.52-7.2,9.52c-3.461,0-5.766-2.307-7.496-6.343C0.872,83.601,0,78.693,0,73.504
	c0-2.307,0.872-5.189,2.307-8.93c0.294-1.153,1.152-2.603,2.025-4.613l0.858,0.282c-0.282,1.448-0.576,2.883-0.858,3.754
	c-0.577,3.459-0.873,6.342-0.873,8.648c0,3.459,0.296,6.048,1.449,8.354c0.858,2.305,2.587,3.753,5.189,4.611
	c1.729,0.295,3.163-2.011,4.317-7.2c0.576-3.459,1.152-6.918,1.729-10.673c0.872-4.036,2.307-7.777,4.331-10.954
	c2.011-3.459,4.612-6.048,8.073-8.354l0.857,0.858c-0.577,2.601-1.153,4.907-1.436,6.342c-0.576,4.613-1.152,8.367-1.152,11.25
	c0,0.858-0.295,1.73-0.295,2.588c0,0.871,0,1.449,0,2.025c0,4.035,0.871,7.494,2.306,10.083c1.448,2.601,4.037,4.035,7.496,4.035
	c3.753,0,7.213-1.729,10.096-4.611c3.164-3.165,4.613-6.92,4.613-11.237c0-3.459-0.873-8.071-2.025-13.837
	c-0.281-1.73-0.857-4.331-1.73-7.496l2.602-6.918c0.578,0.858,1.436,3.741,2.588,8.354c1.449,4.612,2.307,9.225,3.178,13.555
	c1.154,6.624,2.589,11.236,4.317,14.118c2.024,3.755,5.189,5.485,9.225,5.485c1.448,0,2.883-0.578,3.755-1.448
	c0.577-0.576,1.73-1.73,3.165-4.037c-2.588-6.342-4.613-11.235-5.472-14.413c-1.448-5.472-2.601-8.648-2.883-9.507l-2.024-5.189
	c0-1.447,0.296-2.883,0.296-4.33c0.28-1.436,0.576-2.883,1.435-3.741l8.367,10.66v2.024l-3.46-1.154
	c0.576,1.73,1.153,3.165,1.435,4.037c1.152,3.165,2.025,5.47,2.883,7.495c1.449,3.74,2.307,7.496,2.307,10.955
	c0,0.576,0,1.435,0,2.011c-0.281,1.448-0.281,2.307-0.281,2.883c0,3.459-0.873,6.637-2.883,8.943
	c-1.73,2.307-4.332,3.459-7.791,3.459c-1.152,0-2.011-0.295-3.165-0.295c-0.87-0.281-2.024-0.857-3.177-1.435
	c-1.152,3.164-2.011,5.471-2.589,7.495c-0.87,3.459-1.447,6.342-1.447,8.931c0,0.294,0.295,1.448,0.295,2.601
	c0.858,3.741,2.589,6.343,5.189,8.649c2.587,2.01,5.766,3.163,9.801,3.163l-1.448-12.389l2.307-8.648
	c1.152,1.435,2.025,2.883,2.602,4.317c1.73,4.331,2.588,9.801,2.588,16.144c9.802-1.435,19.603-4.894,29.404-10.378
	c2.307-1.435,4.332-2.307,6.061-3.459c0.578-0.576,1.73-1.154,3.164-2.013c0-0.87-1.152-1.729-3.459-2.881
	c-2.588-1.448-4.613-2.307-6.918-2.883c-2.012-0.578-4.895-1.449-8.649-2.307c-1.435-0.296-2.883-0.576-4.894-1.154l2.587-7.495
	c2.025-0.576,3.459-1.152,4.613-1.448c3.459-1.435,6.061-2.883,7.79-4.317c2.588-2.601,4.613-5.766,6.047-9.225
	c0.873-2.883,1.449-6.342,1.449-10.096c0-2.012,0-4.037-0.295-5.472l-5.471-43.818l2.307-8.943l2.586,6.342
	c0.297,0.871,0.578,2.025,1.154,3.459c0,0,0,0.576,0,1.152l5.188,48.726c0.873,7.2,1.73,11.813,2.898,13.838
	c1.447,3.165,4.021,4.894,7.775,5.47l-1.447-12.388l2.307-8.945c0.59,1.73,1.152,2.883,1.715,3.756
	c1.182,3.459,2.039,5.766,2.629,7.494c0.27,1.436,0.563,3.165,0.857,4.896c0,1.729,0.27,3.177,0.27,4.035
	c2.305-1.435,4.908-3.459,7.508-6.048c0.859-0.87,2.012-2.305,3.459-3.753h0.859c0.563,2.024,0.885,3.459,1.152,4.329
	c1.152,3.461,2.602,5.472,4.344,6.048l4.881-7.494c2.039-2.883,3.756-5.472,4.908-7.2c1.422-1.73,3.164-3.756,5.176-6.063
	c2.307-2.305,4.344-4.035,6.65-5.188c2.307-1.435,4.613-2.013,7.188-2.013c2.305,0,4.906,0.578,7.775,1.73
	c2.896,1.152,4.611,2.883,5.793,4.894c1.125,2.307,1.717,4.613,1.717,6.919c0,0.872,0,2.024-0.27,3.46
	C199.475,72.928,199.475,74.08,199.207,74.657z M59.385,36.027c-0.576,1.449-1.435,2.601-2.306,3.459
	c-1.153,0.872-2.012,0.872-3.46,0.872c-1.153-0.296-2.011-1.154-3.163-2.883c0-0.296-0.297-0.576-0.578-1.154
	c-0.576,0.858-0.871,1.73-1.447,2.012c-1.154,1.449-2.307,2.025-3.165,2.025c-2.024,0-3.177-0.576-3.459-2.025
	c-0.576-1.154-0.872-2.588-0.872-3.741c0-0.873,0-1.449,0-2.025s0-1.152,0-1.73l-2.883,3.179c-0.576-0.577,0.296-2.307,2.601-5.766
	c0.282-0.576,0.858-1.448,1.73-2.307c0.576-0.294,1.153,0.282,1.435,1.73c0.576,1.152,0.576,3.741,0.576,7.776
	c0,0.576,0.578,0.576,1.449,0.576c1.152-0.282,2.01-1.152,2.588-2.883l-0.578-6.342l3.18-2.883c0,2.307,0.281,4.331,0.576,5.484
	c0.576,3.741,2.011,5.471,3.74,5.471c0.295,0,0.873-0.282,1.449-0.576c0.281,0,0.576-0.578,0.576-1.154
	c0-0.858-0.295-2.307-1.152-4.035c-0.296-0.282-0.578-0.858-0.873-1.154l2.025-5.47c0.576,1.435,0.858,2.587,1.152,3.459
	c0.858,2.589,1.435,4.894,1.435,6.918C59.961,34.299,59.681,35.169,59.385,36.027z M48.15,7.2c0.281,1.152,0.576,2.025,0.576,3.177
	c0.281,1.152,0.281,2.011,0.281,3.165c0,2.601-0.576,4.908-1.154,6.918c-0.28,0.576-0.576,1.449-1.434,2.025
	c0.281-0.294,0.281-1.152,0.281-2.307c0.295-1.152,0.295-2.025,0.295-2.601c0-1.729-0.295-3.165-0.295-4.317
	c-0.281-1.448-0.857-2.601-1.435-3.755c-0.294-0.576-0.872-1.153-1.448-2.011c-0.281,0-0.281-0.576-0.858-0.871V0
	c1.154,1.152,1.73,1.729,2.307,2.305C46.996,4.317,47.853,5.766,48.15,7.2z M118.77,198.04c0.578,1.448,0.297,3.179-0.857,5.189
	c-0.871,1.73-2.305,2.883-3.754,2.883c-0.281,0-1.434-0.858-3.459-2.307c-0.857,0.872-1.434,1.448-2.012,2.024
	c-1.729,1.435-3.178,2.013-4.611,2.013c-0.576,0.294-1.73,0-2.883-0.578c-0.295,0-0.577-0.28-0.872-0.28
	c-2.307,2.305-4.318,4.317-5.766,5.47c-4.613,4.331-8.354,7.214-11.531,8.943c-3.46,1.435-8.073,3.164-14.119,4.613
	c-2.024,0.576-4.613,1.152-8.072,1.729c2.589-0.871,4.611-1.729,6.048-2.305c8.943-4.037,15.861-7.496,20.755-10.956
	c2.601-1.729,5.766-4.331,9.521-7.494c1.153-1.154,2.883-2.603,5.189-4.331c0.281,0.294,0.857,0.576,0.857,0.576
	c0.873,0.576,1.73,0.872,2.307,1.152c1.154,0,2.602-0.28,4.332-1.729c0.576-0.282,1.434-1.153,2.307-2.011
	c0.279,0.28,0.279,0.28,0.279,0.576c1.154,0.857,2.025,1.152,2.604,1.435c0.857,0,1.729-0.858,2.305-2.307
	C117.912,198.912,118.49,198.04,118.77,198.04z M89.943,93.979c0,2.011,0,4.894-0.282,8.072c-0.576,3.163-1.152,6.342-2.024,10.083
	h-1.152l-1.152-15.849l-0.858-10.674l-6.062-52.749l-1.435-7.791l-2.025-7.776l3.18-8.649l9.505,19.886v3.753l-4.317-5.484
	l-0.294,1.448l0.294,4.036l6.048,53.325L89.943,93.979z M136.645,127.419l-3.459-35.747c-3.461,0-6.328-0.576-8.367-1.729
	c-2.588-1.448-4.6-3.755-6.049-7.496c-0.576-1.446-0.857-2.883-0.857-4.611c0-1.73-0.295-2.883-0.295-3.755
	c-0.281,3.459-1.729,6.92-4.316,10.673c-0.873,1.153-2.025,2.589-3.756,4.613c1.154,0.576,2.307,0.858,2.883,1.153
	c2.307,0.857,4.332,1.729,5.484,2.587c1.436,0.872,2.307,1.448,2.588,1.73c0.576,1.152,0.873,2.601,0.576,4.331
	c-0.281,3.459-0.857,5.766-1.434,7.494c-0.873,2.013-2.307,4.036-4.332,5.766c-3.74,3.46-9.225,6.919-16.143,10.084
	c-6.918,3.459-13.26,5.766-19.308,6.918l2.012,17.592c7.213-1.448,14.709-4.33,22.781-8.648c2.588-1.447,5.766-3.46,9.801-6.343
	c0.578,3.165,1.436,5.472,2.012,6.92c2.025,4.317,4.611,6.623,7.494,6.623c4.344,0,7.51-2.011,9.52-6.047
	C133.775,138.654,134.9,134.619,136.645,127.419z M116.465,162.294l-4.895,7.494l-6.918-5.188l-4.909,7.213l-7.776-5.484
	l4.894-7.776l6.639,5.189l5.188-6.92L116.465,162.294z M176.734,7.776c0,0.294,0.268,0.871,0.268,1.729
	c0,0.578,0.297,1.154,0.297,1.73c0,2.601-0.885,4.613-2.012,6.637c-2.037,2.588-4.908,4.319-9.225,5.189L135.785,33.44l-5.176,4.894
	l-4.344,2.307c0.295-1.73,0.859-3.165,1.152-4.319c1.449-3.459,3.756-6.06,6.625-8.071l33.734-11.826
	c3.166-0.858,5.766-2.883,7.779-6.342C175.85,9.505,176.145,8.647,176.734,7.776z M197.492,72.646
	c-1.182-2.024-2.898-3.754-5.498-5.484c-3.166-1.729-6.355-2.883-9.52-2.883c-4.318,0-8.932,2.602-14.105,7.791
	c-3.166,3.459-6.652,7.776-10.084,12.966c0.857,0,1.422,0.294,1.984,0.294c3.486,0.282,6.65,0.577,9.225,0.577
	c1.742,0,3.486,0,5.203-0.295c4.344-0.858,9.225-2.883,14.99-6.624C194.301,76.104,196.9,73.8,197.492,72.646z M189.393,171.237
	c-1.127-0.871-1.717-1.449-2.307-1.729c-1.717-1.153-3.164-1.729-4.316-2.024c-0.563-0.282-1.422,0-2.307,0.295
	c-0.859,0.281-1.422,0.857-1.422,1.434s0.268,1.154,1.127,1.73L189.393,171.237z"/>
</svg>
